<?xml version="1.0" standalone="no"?>
<!DOCTYPE svg PUBLIC "-//W3C//DTD SVG 20010904//EN"
 "http://www.w3.org/TR/2001/REC-SVG-20010904/DTD/svg10.dtd">
<svg version="1.0" xmlns="http://www.w3.org/2000/svg"
 width="70.000000pt" height="70.000000pt" viewBox="0 0 70.000000 70.000000"
 preserveAspectRatio="xMidYMid meet">
<metadata>
Created by potrace 1.11, written by Peter Selinger 2001-2013
</metadata>
<g transform="translate(0.000000,70.000000) scale(0.100000,-0.100000)"
fill="#000000" stroke="none">
<path d="M306 642 c-3 -3 -6 -27 -6 -54 l0 -49 48 3 47 3 0 50 0 50 -42 1
c-23 1 -44 -1 -47 -4z"/>
<path d="M60 542 c0 -4 54 -61 120 -127 l120 -120 0 75 0 76 -53 52 -53 52
-67 0 c-37 0 -67 -3 -67 -8z"/>
<path d="M451 496 c-51 -52 -53 -55 -53 -112 0 -32 0 -66 1 -74 1 -14 241 217
241 232 0 5 -31 8 -68 8 l-68 0 -53 -54z"/>
<path d="M100 149 l0 -100 53 3 52 3 -1 47 -1 48 48 0 49 0 0 50 0 50 -100 0
-100 0 0 -101z"/>
<path d="M394 203 l1 -48 48 -3 47 -3 0 -50 0 -49 55 0 55 0 0 100 0 100 -103
0 -104 0 1 -47z"/>
</g>
</svg>
